<svg width="480" height="480" xmlns="http://www.w3.org/2000/svg">
 <g id="Layer_1">
  <title>Layer 1</title>
  <g stroke="null">
   <path fill="#505050" stroke="null" d="m240,1.185c-131.98776,0 -239.00001,108.60371 -239.00001,242.55435c0,113.65692 77.11734,208.75844 181.08234,235.07559c-1.11533,-3.27448 -1.83233,-7.0745 -1.83233,-11.7841l0,-41.45658c-9.69942,0 -25.95142,0 -30.03434,0c-16.35158,0 -30.89075,-7.13514 -37.94125,-20.39478c-7.82725,-14.73518 -9.18158,-37.27252 -28.58042,-51.05769c-5.75592,-4.58832 -1.37425,-9.82345 5.258,-9.116c12.24875,3.51704 22.40625,12.04687 31.96625,24.70012c9.52017,12.67346 14.00142,15.54369 31.787,15.54369c8.62392,0 21.52992,-0.50532 33.67909,-2.44576c6.53267,-16.83731 17.82542,-32.34058 31.62767,-39.65764c-79.587,-8.30749 -117.56809,-48.49066 -117.56809,-103.04517c0,-23.48735 9.85875,-46.2066 26.60867,-65.34818c-5.497,-19.00009 -12.40808,-57.74815 2.11117,-72.50354c35.81017,0 57.45959,23.5682 62.65784,29.93525c17.84533,-6.20535 37.44334,-9.72239 58.03717,-9.72239c20.63367,0 40.31134,3.51704 58.1965,9.76281c5.1385,-6.32663 26.80783,-29.97567 62.69767,-29.97567c14.579,14.7756 7.58825,53.68536 2.0315,72.64503c16.65033,19.10115 26.44933,41.75977 26.44933,65.20669c0,54.51409 -37.92134,94.67705 -117.38884,103.02496c21.8685,11.58197 37.82175,44.12468 37.82175,68.64288l0,55.26197c0,2.10214 -0.45808,3.6181 -0.69708,5.41705c93.13034,-33.12888 160.03043,-122.87399 160.03043,-228.70854c0,-133.95064 -107.01226,-242.55435 -239.00001,-242.55435z"/>
  </g>
 </g>

</svg>